<svg width="44" height="33" viewBox="0 0 44 33" fill="none" xmlns="http://www.w3.org/2000/svg">
<path d="M3.95506 30.3309C1.48315 27.6618 0 24.75 0 19.8971C0 11.4044 6.17978 3.88235 14.8315 0L17.0562 3.15441C8.89888 7.52206 7.16854 13.1029 6.67416 16.7426C7.91011 16.0147 9.64045 15.7721 11.3708 16.0147C15.8202 16.5 19.2809 19.8971 19.2809 24.5074C19.2809 26.6912 18.2921 28.875 16.809 30.5735C15.0787 32.2721 13.1011 33 10.6292 33C7.91011 33 5.4382 31.7868 3.95506 30.3309ZM28.6742 30.3309C26.2022 27.6618 24.7191 24.75 24.7191 19.8971C24.7191 11.4044 30.8989 3.88235 39.5506 0L41.7753 3.15441C33.618 7.52206 31.8876 13.1029 31.3933 16.7426C32.6292 16.0147 34.3596 15.7721 36.0899 16.0147C40.5393 16.5 44 19.8971 44 24.5074C44 26.6912 43.0112 28.875 41.5281 30.5735C40.0449 32.2721 37.8202 33 35.3483 33C32.6292 33 30.1573 31.7868 28.6742 30.3309Z" fill="#DC9937" fill-opacity="0.3"/>
</svg>
