<svg width="109" height="12" viewBox="0 0 109 12" fill="none" xmlns="http://www.w3.org/2000/svg">
<g clip-path="url(#clip0_485_36040)">
<path d="M17.1977 11.9922C40.5106 11.6842 63.8127 11.3842 87.1256 11.0762C93.7746 10.9902 100.413 10.9042 107.063 10.8112C108.447 10.7892 109.268 9.8512 108.92 9.0632C108.492 8.1172 107.063 7.6522 105.623 7.6452C78.7217 7.5802 51.8183 7.5232 24.9051 7.4582C17.2424 7.4442 9.57971 7.4222 1.9181 7.4082L3.9891 10.4812C28.9109 6.1612 54.6305 3.7412 80.4417 3.2462C87.7556 3.1102 95.0804 3.1252 102.394 3.3042C103.71 3.3322 105.05 2.9312 105.027 1.9712C105.005 1.1262 103.676 0.188202 102.304 0.159202C75.8626 -0.485798 49.3538 0.825202 23.4085 4.1632C15.9824 5.1232 8.60198 6.2332 1.28808 7.5082C0.0509285 7.7232 -0.253182 8.7122 0.196988 9.3642C0.759428 10.1872 1.99658 10.5812 3.35799 10.5812C30.2603 10.6462 57.1626 10.7032 84.0768 10.7682C91.7395 10.7822 99.4012 10.8032 107.063 10.8182L105.623 7.6522C82.31 7.9602 59.0079 8.2612 35.695 8.5692C29.046 8.6552 22.4079 8.7402 15.7578 8.8342C14.3735 8.8552 13.5517 9.7942 13.9005 10.5812C14.3168 11.5052 15.7687 12.0142 17.1977 12.0002V11.9922Z" fill="#DC9937"/>
</g>
<defs>
<clipPath id="clip0_485_36040">
<rect width="109" height="12" fill="white"/>
</clipPath>
</defs>
</svg>
